<svg xmlns="http://www.w3.org/2000/svg" viewBox="0 0 64 68">
  <!-- 盾牌主体 -->
  <path d="M9 8 H55 V30 C55 44 43 54 32 59 C21 54 9 44 9 30 Z" fill="#0a1f44" stroke="#c69121" stroke-width="2.5"/>
  <!-- 内框细线 -->
  <path d="M13 12 H51 V30 C51 41 41 49.5 32 54 C23 49.5 13 41 13 30 Z" fill="none" stroke="#c69121" stroke-width="0.9" opacity="0.55"/>
  <!-- 五角星 -->
  <path d="M32 13.5 L33.29 17.22 L37.23 17.30 L34.09 19.68 L35.23 23.45 L32 21.2 L28.77 23.45 L29.91 19.68 L26.77 17.30 L30.71 17.22 Z" fill="#c69121"/>
  <!-- 翻开的书 -->
  <path d="M32 34 C27.5 30.8 21 29.8 16 31.3 L16 41 C21 39.5 27.5 40.5 32 43.8 Z" fill="#f5efe3"/>
  <path d="M32 34 C36.5 30.8 43 29.8 48 31.3 L48 41 C43 39.5 36.5 40.5 32 43.8 Z" fill="#f5efe3"/>
  <path d="M32 34 V43.8 M19.5 34.2 H28 M19.5 37 H28 M36 34.2 H44.5 M36 37 H44.5" stroke="#0a1f44" stroke-width="0.9" stroke-linecap="round"/>
</svg>
